<?xml version="1.0" standalone="no"?>
<!DOCTYPE svg PUBLIC "-//W3C//DTD SVG 20010904//EN"
 "http://www.w3.org/TR/2001/REC-SVG-20010904/DTD/svg10.dtd">
<svg version="1.0" xmlns="http://www.w3.org/2000/svg"
 width="1096.000000pt" height="1096.000000pt" viewBox="0 0 1096.000000 1096.000000"
 preserveAspectRatio="xMidYMid meet">
<metadata>
Created by potrace 1.11, written by Peter Selinger 2001-2013
</metadata>
<g transform="translate(0.000000,1096.000000) scale(0.100000,-0.100000)"
fill="#000000" stroke="none">
<path d="M5386 8894 c-70 -22 -149 -103 -170 -174 -9 -30 -16 -70 -16 -90 0
-101 64 -203 156 -250 66 -34 179 -35 240 -3 64 34 103 71 131 127 22 42 27
64 27 126 0 81 -17 126 -70 189 -62 74 -196 108 -298 75z"/>
<path d="M3335 5498 c-1001 -1431 -1821 -2605 -1823 -2610 -2 -4 149 -8 335
-8 l339 0 774 1105 774 1105 708 0 708 0 0 -1105 0 -1105 315 0 315 0 0 1105
0 1105 303 0 c166 0 330 -5 365 -10 281 -46 492 -209 729 -565 33 -49 221
-360 418 -690 197 -330 403 -676 459 -770 l102 -170 372 -3 c205 -1 372 0 372
4 0 7 -1013 1632 -1127 1808 -114 174 -192 276 -288 372 -86 86 -134 122 -253
190 -44 25 -70 45 -62 48 140 42 233 77 317 116 442 208 723 573 798 1035 19
117 19 391 0 515 -42 278 -159 515 -350 705 -229 229 -531 362 -935 410 -90
11 -302 14 -980 14 l-865 0 -1820 -2601z m3595 2008 c122 -28 257 -76 318
-113 198 -119 313 -269 369 -481 22 -84 26 -118 26 -257 1 -132 -3 -175 -21
-248 -105 -424 -419 -684 -885 -736 -54 -6 -287 -11 -527 -11 l-430 0 0 936 0
935 538 -4 c464 -3 547 -6 612 -21z m-1783 -1853 c-2 -2 -232 -2 -511 -1
l-506 3 507 725 508 726 3 -725 c1 -398 1 -726 -1 -728z"/>
</g>
</svg>
